<svg width="58" height="58" viewBox="0 0 58 58" fill="none" xmlns="http://www.w3.org/2000/svg">
<g id="bxs-bell">
<path id="Vector" d="M29 53.1666C30.4966 53.1685 31.9567 52.7041 33.1772 51.8379C34.3977 50.9717 35.318 49.7467 35.8102 48.3333H22.1898C22.682 49.7467 23.6023 50.9717 24.8228 51.8379C26.0433 52.7041 27.5034 53.1685 29 53.1666ZM45.9167 35.2495V24.1666C45.9167 16.3922 40.6362 9.84306 33.4829 7.87348C32.7748 6.08998 31.0445 4.83331 29 4.83331C26.9555 4.83331 25.2252 6.08998 24.5171 7.87348C17.3638 9.84548 12.0833 16.3922 12.0833 24.1666V35.2495L7.95809 39.3747C7.73323 39.5988 7.55491 39.8651 7.43339 40.1583C7.31187 40.4515 7.24954 40.7659 7.25 41.0833V43.5C7.25 44.1409 7.50461 44.7556 7.95783 45.2088C8.41104 45.662 9.02573 45.9166 9.66667 45.9166H48.3333C48.9743 45.9166 49.589 45.662 50.0422 45.2088C50.4954 44.7556 50.75 44.1409 50.75 43.5V41.0833C50.7505 40.7659 50.6881 40.4515 50.5666 40.1583C50.4451 39.8651 50.2668 39.5988 50.0419 39.3747L45.9167 35.2495Z" fill="black"/>
</g>
</svg>
