<svg width="48" height="48" viewBox="0 0 48 48" fill="none" xmlns="http://www.w3.org/2000/svg">
<g id="cat" clip-path="url(#clip0_170_31)">
<path id="Vector" d="M44.5714 24C44.5714 25 45.1429 27 46.2857 30C47.4286 33 48 35 48 36C48 38.0312 47.6518 39.9531 46.9554 41.7656C46.2589 43.5781 45.2411 45.0703 43.9018 46.2422C42.5625 47.4141 41.0714 48 39.4286 48H15.4286C14.9643 48 14.5625 47.8516 14.2232 47.5547C13.8839 47.2578 13.7143 46.9062 13.7143 46.5C13.7143 46.0938 13.8839 45.7422 14.2232 45.4453C14.5625 45.1484 14.9643 45 15.4286 45C15.9286 45 16.3393 44.8594 16.6607 44.5781C16.9821 44.2969 17.1429 43.9375 17.1429 43.5C17.1429 42.6875 16.7857 41.7422 16.0714 40.6641C15.3571 39.5859 14.5 38.4766 13.5 37.3359C12.5 36.1953 11.5 35.0156 10.5 33.7969C9.5 32.5781 8.64286 31.2344 7.92857 29.7656C7.21429 28.2969 6.85714 26.875 6.85714 25.5C6.85714 23.1562 7.92857 21.2188 10.0714 19.6875C9.64286 18.5625 8.57143 18 6.85714 18C5.82143 18 4.74107 17.6797 3.61607 17.0391C2.49107 16.3984 1.60714 15.7266 0.964286 15.0234C0.321429 14.3203 0 13.8125 0 13.5C0 13.0938 0.169643 12.7422 0.508929 12.4453C0.848214 12.1484 1.25 12 1.71429 12C2 12 2.30357 11.7812 2.625 11.3438C2.94643 10.9062 3.3125 10.3594 3.72321 9.70312C4.13393 9.04688 4.60714 8.38281 5.14286 7.71094C5.67857 7.03906 6.39286 6.41406 7.28571 5.83594C8.17857 5.25781 9.17857 4.85938 10.2857 4.64062V0C11.1071 0 12.0714 0.554688 13.1786 1.66406C14.2857 2.77344 15 3.92188 15.3214 5.10938C17.0357 5.73438 18.3393 6.82031 19.2321 8.36719C20.125 9.91406 20.5714 11.625 20.5714 13.5C20.5714 14.4062 20.7946 15.2656 21.2411 16.0781C21.6875 16.8906 22.3214 17.6172 23.1429 18.2578C23.9643 18.8984 24.6339 19.3828 25.1518 19.7109C25.6696 20.0391 26.3214 20.4062 27.1071 20.8125C27.25 20.9062 27.3571 20.9688 27.4286 21C29.5 22.0312 31.2143 23.0312 32.5714 24C35.0357 25.7812 37.0804 28.0156 38.7054 30.7031C40.3304 33.3906 41.1429 35.6562 41.1429 37.5C41.1429 37.625 41.1607 37.7656 41.1964 37.9219C41.2321 38.0781 41.3929 38.2969 41.6786 38.5781C41.9643 38.8594 42.3571 39 42.8571 39C43.3571 39 43.7679 38.7578 44.0893 38.2734C44.4107 37.7891 44.5714 37.0312 44.5714 36C44.5714 34.9062 44.3393 33.8125 43.875 32.7188C43.4107 31.625 42.8393 30.5859 42.1607 29.6016C41.4821 28.6172 40.8036 27.5938 40.125 26.5312C39.4464 25.4688 38.875 24.1953 38.4107 22.7109C37.9464 21.2266 37.7143 19.6562 37.7143 18C37.7143 16.5 38.4286 15.125 39.8571 13.875C41.2857 12.625 42.8571 12 44.5714 12C45.5357 12 46.3482 12.2891 47.0089 12.8672C47.6696 13.4453 48 14.1562 48 15C48 15.5 47.8929 15.9453 47.6786 16.3359C47.4643 16.7266 47.1875 17.0859 46.8482 17.4141C46.5089 17.7422 46.3214 17.9375 46.2857 18C45.1429 19.6562 44.5714 21.6562 44.5714 24Z" fill="black"/>
</g>
<defs>
<clipPath id="clip0_170_31">
<rect width="48" height="48" fill="white"/>
</clipPath>
</defs>
</svg>
