<svg width="41" height="36" viewBox="0 0 41 36" fill="none" xmlns="http://www.w3.org/2000/svg">
<g id="envelope" clip-path="url(#clip0_125_468)">
<path id="Vector" d="M41 11.608V31.9091C41 33.0341 40.6416 33.9972 39.9247 34.7983C39.2078 35.5994 38.346 36 37.3393 36H3.66071C2.65402 36 1.79222 35.5994 1.07533 34.7983C0.358445 33.9972 0 33.0341 0 31.9091V11.608C0.671131 12.4432 1.44141 13.1847 2.31083 13.8324C7.8324 18.0256 11.6228 20.9659 13.6819 22.6534C14.5513 23.3693 15.2568 23.9276 15.7983 24.3281C16.3398 24.7287 17.0605 25.1378 17.9604 25.5554C18.8603 25.973 19.6992 26.1818 20.4771 26.1818H20.5229C21.3008 26.1818 22.1397 25.973 23.0396 25.5554C23.9395 25.1378 24.6602 24.7287 25.2017 24.3281C25.7432 23.9276 26.4487 23.3693 27.3181 22.6534C29.9111 20.5568 33.7091 17.6165 38.7121 13.8324C39.5815 13.1676 40.3441 12.4261 41 11.608ZM41 4.09091C41 5.4375 40.6263 6.72443 39.8789 7.9517C39.1315 9.17898 38.2011 10.2273 37.0876 11.0966C31.3525 15.5455 27.7833 18.3153 26.38 19.4062C26.2275 19.5256 25.9034 19.7855 25.4076 20.1861C24.9119 20.5866 24.5001 20.9105 24.1722 21.1577C23.8442 21.4048 23.4476 21.6818 22.9824 21.9886C22.5172 22.2955 22.0787 22.5256 21.6669 22.679C21.255 22.8324 20.8737 22.9091 20.5229 22.9091H20.4771C20.1263 22.9091 19.745 22.8324 19.3331 22.679C18.9213 22.5256 18.4828 22.2955 18.0176 21.9886C17.5524 21.6818 17.1558 21.4048 16.8278 21.1577C16.4999 20.9105 16.0881 20.5866 15.5924 20.1861C15.0966 19.7855 14.7725 19.5256 14.62 19.4062C13.232 18.3153 11.2338 16.7599 8.62556 14.7401C6.0173 12.7202 4.45387 11.5057 3.93527 11.0966C2.98958 10.3807 2.09728 9.39631 1.25837 8.14347C0.419457 6.89062 0 5.72727 0 4.65341C0 3.32386 0.316499 2.21591 0.949498 1.32955C1.5825 0.443182 2.48624 0 3.66071 0H37.3393C38.3307 0 39.1887 0.400568 39.9132 1.2017C40.6377 2.00284 41 2.96591 41 4.09091Z" fill="black"/>
<line id="Line 5" x1="21.354" y1="22.25" x2="20.4998" y2="22.25" stroke="black"/>
</g>
<defs>
<clipPath id="clip0_125_468">
<rect width="41" height="36" fill="white"/>
</clipPath>
</defs>
</svg>
