<svg width="111" height="14" viewBox="0 0 111 14" fill="none" xmlns="http://www.w3.org/2000/svg">
<g id="Group 79">
<g id="Group 78">
<path id="Star 15" d="M11.5 0L14.0819 4.83688H22.4371L15.6776 7.82624L18.2595 12.6631L11.5 9.67376L4.74047 12.6631L7.32238 7.82624L0.56285 4.83688H8.91809L11.5 0Z" fill="#D9D9D9"/>
<path id="Star 16" d="M33.5 0L36.0819 4.83688H44.4371L37.6776 7.82624L40.2595 12.6631L33.5 9.67376L26.7405 12.6631L29.3224 7.82624L22.5628 4.83688H30.9181L33.5 0Z" fill="#D9D9D9"/>
<path id="Star 17" d="M55.5 0L58.0819 4.83688H66.4371L59.6776 7.82624L62.2595 12.6631L55.5 9.67376L48.7405 12.6631L51.3224 7.82624L44.5628 4.83688H52.9181L55.5 0Z" fill="#D9D9D9"/>
<path id="Star 18" d="M77.5 0L80.0819 4.83688H88.4371L81.6776 7.82624L84.2595 12.6631L77.5 9.67376L70.7405 12.6631L73.3224 7.82624L66.5628 4.83688H74.9181L77.5 0Z" fill="#D9D9D9"/>
<path id="Star 19" d="M99.5 0L102.082 4.83688H110.437L103.678 7.82624L106.26 12.6631L99.5 9.67376L92.7405 12.6631L95.3224 7.82624L88.5628 4.83688H96.9181L99.5 0Z" fill="#D9D9D9"/>
</g>
<path id="Star 15_2" d="M11.5 0L14.0819 4.83688H22.4371L15.6776 7.82624L18.2595 12.6631L11.5 9.67376L4.74047 12.6631L7.32238 7.82624L0.56285 4.83688H8.91809L11.5 0Z" fill="#F00707"/>
<path id="Star 16_2" d="M33.5 0L36.0819 4.83688H44.4371L37.6776 7.82624L40.2595 12.6631L33.5 9.67376L26.7405 12.6631L29.3224 7.82624L22.5628 4.83688H30.9181L33.5 0Z" fill="#F00707"/>
<path id="Star 17_2" d="M55.5 0L58.0819 4.83688H66.4371L59.6776 7.82624L62.2595 12.6631L55.5 9.67376L48.7405 12.6631L51.3224 7.82624L44.5628 4.83688H52.9181L55.5 0Z" fill="#F00707"/>
<path id="Star 18_2" d="M77.5 0L80.0819 4.83688H88.4371L81.6776 7.82624L84.2595 12.6631L77.5 9.67376L70.7405 12.6631L73.3224 7.82624L66.5628 4.83688H74.9181L77.5 0Z" fill="#F00707"/>
<path id="Star 19_2" d="M99.5 0L102.082 4.83688H110.437L103.678 7.82624L106.26 12.6631L99.5 9.67376L92.7405 12.6631L95.3224 7.82624L88.5628 4.83688H96.9181L99.5 0Z" fill="#D9D9D9"/>
</g>
</svg>
