<svg width="115" height="16" viewBox="0 0 115 16" fill="none" xmlns="http://www.w3.org/2000/svg">
<g id="Group 80">
<path id="Star 20" d="M11.5 0L14.0819 5.52786H22.4371L15.6776 8.94427L18.2595 14.4721L11.5 11.0557L4.74047 14.4721L7.32238 8.94427L0.56285 5.52786H8.91809L11.5 0Z" fill="#F00707"/>
<path id="Star 21" d="M34.5 0L37.0819 5.52786H45.4371L38.6776 8.94427L41.2595 14.4721L34.5 11.0557L27.7405 14.4721L30.3224 8.94427L23.5628 5.52786H31.9181L34.5 0Z" fill="#F00707"/>
<path id="Star 22" d="M57.5 0L60.0819 5.52786H68.4371L61.6776 8.94427L64.2595 14.4721L57.5 11.0557L50.7405 14.4721L53.3224 8.94427L46.5628 5.52786H54.9181L57.5 0Z" fill="#F00707"/>
<path id="Star 23" d="M80.5 0L83.0819 5.52786H91.4371L84.6776 8.94427L87.2595 14.4721L80.5 11.0557L73.7405 14.4721L76.3224 8.94427L69.5628 5.52786H77.9181L80.5 0Z" fill="#D9D9D9"/>
<path id="Star 24" d="M103.5 0L106.082 5.52786H114.437L107.678 8.94427L110.26 14.4721L103.5 11.0557L96.7405 14.4721L99.3224 8.94427L92.5628 5.52786H100.918L103.5 0Z" fill="#D9D9D9"/>
</g>
</svg>
