<svg width="48" height="49" viewBox="0 0 48 49" fill="none" xmlns="http://www.w3.org/2000/svg">
<g id="home" clip-path="url(#clip0_161_107)">
<path id="Vector" d="M40.6152 28.6345V46.4045C40.6152 47.0462 40.4325 47.6015 40.0671 48.0704C39.7017 48.5394 39.269 48.7738 38.769 48.7738H27.6921V34.5578H20.3075V48.7738H9.23056C8.73056 48.7738 8.29786 48.5394 7.93248 48.0704C7.56709 47.6015 7.3844 47.0462 7.3844 46.4045V28.6345C7.3844 28.6098 7.38921 28.5728 7.39883 28.5234C7.40844 28.474 7.41325 28.437 7.41325 28.4123L23.9998 10.8644L40.5863 28.4123C40.6056 28.4617 40.6152 28.5357 40.6152 28.6345ZM47.0479 26.08L45.2594 28.8196C45.1056 29.0417 44.9036 29.1774 44.6536 29.2268H44.5671C44.3171 29.2268 44.1152 29.1404 43.9613 28.9676L23.9998 7.60658L4.03825 28.9676C3.80748 29.1651 3.57671 29.2515 3.34594 29.2268C3.09594 29.1774 2.89402 29.0417 2.74017 28.8196L0.95171 26.08C0.797864 25.8332 0.730556 25.5432 0.749787 25.21C0.769018 24.8768 0.874787 24.6115 1.06709 24.4141L21.8075 2.23854C22.4229 1.59685 23.1536 1.276 23.9998 1.276C24.8459 1.276 25.5767 1.59685 26.1921 2.23854L33.2306 9.79081V2.57173C33.2306 2.2262 33.3171 1.94238 33.4902 1.72025C33.6632 1.49813 33.8844 1.38706 34.1536 1.38706H39.6921C39.9613 1.38706 40.1825 1.49813 40.3556 1.72025C40.5286 1.94238 40.6152 2.2262 40.6152 2.57173V17.6763L46.9325 24.4141C47.1248 24.6115 47.2306 24.8768 47.2498 25.21C47.269 25.5432 47.2017 25.8332 47.0479 26.08Z" fill="black"/>
</g>
<defs>
<clipPath id="clip0_161_107">
<rect width="48" height="48.5714" fill="white" transform="translate(0 0.202393)"/>
</clipPath>
</defs>
</svg>
