<svg width="41" height="36" viewBox="0 0 41 36" fill="none" xmlns="http://www.w3.org/2000/svg">
<g id="lock" clip-path="url(#clip0_125_473)">
<path id="Vector" d="M11.3889 16.3636H29.6111V11.4545C29.6111 9.64773 28.7214 8.10511 26.9418 6.8267C25.1623 5.5483 23.015 4.90909 20.5 4.90909C17.985 4.90909 15.8377 5.5483 14.0582 6.8267C12.2786 8.10511 11.3889 9.64773 11.3889 11.4545V16.3636ZM41 18.8182V33.5455C41 34.2273 40.6678 34.8068 40.0035 35.2841C39.3391 35.7614 38.5324 36 37.5833 36H3.41667C2.46759 36 1.66088 35.7614 0.996528 35.2841C0.332176 34.8068 0 34.2273 0 33.5455V18.8182C0 18.1364 0.332176 17.5568 0.996528 17.0795C1.66088 16.6023 2.46759 16.3636 3.41667 16.3636H4.55556V11.4545C4.55556 8.31818 6.12153 5.625 9.25347 3.375C12.3854 1.125 16.1343 0 20.5 0C24.8657 0 28.6146 1.125 31.7465 3.375C34.8785 5.625 36.4444 8.31818 36.4444 11.4545V16.3636H37.5833C38.5324 16.3636 39.3391 16.6023 40.0035 17.0795C40.6678 17.5568 41 18.1364 41 18.8182Z" fill="black"/>
</g>
<defs>
<clipPath id="clip0_125_473">
<rect width="41" height="36" fill="white"/>
</clipPath>
</defs>
</svg>
