<svg width="40" height="39" viewBox="0 0 40 39" fill="none" xmlns="http://www.w3.org/2000/svg">
<g id="phone" clip-path="url(#clip0_125_934)">
<path id="Vector" d="M40 30.8011C40 31.2997 39.9053 31.9506 39.7159 32.7539C39.5265 33.5572 39.3277 34.1896 39.1193 34.6513C38.7216 35.5746 37.5663 36.5533 35.6534 37.5874C33.8731 38.5291 32.1117 39 30.3693 39C29.858 39 29.3561 38.9677 28.8636 38.9031C28.3712 38.8384 27.8267 38.723 27.2301 38.5568C26.6335 38.3906 26.1884 38.2567 25.8949 38.1552C25.6013 38.0536 25.0758 37.8643 24.3182 37.5874C23.5606 37.3104 23.0966 37.1442 22.9261 37.0888C21.0701 36.4425 19.4129 35.6761 17.9545 34.7898C15.5492 33.331 13.0492 31.3366 10.4545 28.8068C7.85985 26.277 5.81439 23.8395 4.31818 21.4943C3.40909 20.0724 2.62311 18.4567 1.96023 16.647C1.90341 16.4808 1.73295 16.0284 1.44886 15.2898C1.16477 14.5511 0.970644 14.0387 0.866477 13.7525C0.762311 13.4663 0.625 13.0323 0.454545 12.4506C0.284091 11.869 0.16572 11.3381 0.0994318 10.858C0.0331439 10.3778 0 9.88849 0 9.38991C0 7.69105 0.482955 5.97372 1.44886 4.23793C2.50947 2.37287 3.51326 1.24645 4.46023 0.858665C4.93371 0.65554 5.58239 0.461648 6.40625 0.276989C7.23011 0.0923295 7.89773 0 8.40909 0C8.67424 0 8.87311 0.0276989 9.00568 0.0830966C9.34659 0.193892 9.84848 0.895597 10.5114 2.18821C10.7197 2.53906 11.0038 3.03764 11.3636 3.68395C11.7235 4.33026 12.0549 4.91655 12.358 5.44283C12.661 5.96911 12.9545 6.46307 13.2386 6.92472C13.2955 6.99858 13.4612 7.2294 13.7358 7.61719C14.0104 8.00497 14.214 8.33274 14.3466 8.6005C14.4792 8.86825 14.5455 9.13139 14.5455 9.38991C14.5455 9.75923 14.2756 10.2209 13.7358 10.7749C13.196 11.3288 12.6089 11.8366 11.9744 12.2983C11.34 12.7599 10.7528 13.2493 10.2131 13.7663C9.6733 14.2834 9.40341 14.7081 9.40341 15.0405C9.40341 15.2067 9.45076 15.4144 9.54545 15.6637C9.64015 15.913 9.72064 16.1023 9.78693 16.2315C9.85322 16.3608 9.9858 16.5824 10.1847 16.8963C10.3835 17.2102 10.4924 17.3857 10.5114 17.4226C11.9508 19.9524 13.5985 22.1222 15.4545 23.9318C17.3106 25.7415 19.536 27.348 22.1307 28.7514C22.1686 28.7699 22.3485 28.8761 22.6705 29.07C22.9924 29.2638 23.2197 29.3931 23.3523 29.4577C23.4848 29.5224 23.679 29.6009 23.9347 29.6932C24.1903 29.7855 24.4034 29.8317 24.5739 29.8317C24.9148 29.8317 25.3504 29.5685 25.8807 29.0423C26.411 28.516 26.9129 27.9435 27.3864 27.3249C27.8598 26.7063 28.3807 26.1339 28.9489 25.6076C29.517 25.0813 29.9905 24.8182 30.3693 24.8182C30.6345 24.8182 30.9044 24.8828 31.179 25.0121C31.4536 25.1413 31.7898 25.3398 32.1875 25.6076C32.5852 25.8754 32.822 26.0369 32.8977 26.0923C33.3712 26.3693 33.8778 26.6555 34.4176 26.951C34.9574 27.2464 35.5587 27.5696 36.2216 27.9205C36.8845 28.2713 37.3958 28.5483 37.7557 28.7514C39.0814 29.3977 39.8011 29.8871 39.9148 30.2195C39.9716 30.3487 40 30.5426 40 30.8011Z" fill="black"/>
</g>
<defs>
<clipPath id="clip0_125_934">
<rect width="40" height="39" fill="white"/>
</clipPath>
</defs>
</svg>
