<svg width="33" height="30" viewBox="0 0 33 30" fill="none" xmlns="http://www.w3.org/2000/svg">
<g id="search" clip-path="url(#clip0_161_189)">
<path id="Vector" d="M22.5218 12.6923C22.5218 10.4688 21.6845 8.56671 20.0098 6.98618C18.3351 5.40565 16.3198 4.61538 13.9638 4.61538C11.6078 4.61538 9.59253 5.40565 7.91787 6.98618C6.24321 8.56671 5.40588 10.4688 5.40588 12.6923C5.40588 14.9159 6.24321 16.8179 7.91787 18.3984C9.59253 19.979 11.6078 20.7692 13.9638 20.7692C16.3198 20.7692 18.3351 19.979 20.0098 18.3984C21.6845 16.8179 22.5218 14.9159 22.5218 12.6923ZM32.3023 27.6923C32.3023 28.3173 32.0603 28.8582 31.5764 29.3149C31.0925 29.7716 30.5194 30 29.8572 30C29.1695 30 28.5964 29.7716 28.1379 29.3149L21.5858 23.149C19.3062 24.6394 16.7655 25.3846 13.9638 25.3846C12.1427 25.3846 10.4012 25.0511 8.73928 24.384C7.07736 23.7169 5.64466 22.8155 4.4412 21.6797C3.23774 20.5439 2.28261 19.1917 1.57582 17.6232C0.869022 16.0547 0.515625 14.4111 0.515625 12.6923C0.515625 10.9736 0.869022 9.32993 1.57582 7.76142C2.28261 6.19291 3.23774 4.84074 4.4412 3.70493C5.64466 2.56911 7.07736 1.66767 8.73928 1.0006C10.4012 0.333534 12.1427 0 13.9638 0C15.7849 0 17.5265 0.333534 19.1884 1.0006C20.8503 1.66767 22.283 2.56911 23.4865 3.70493C24.6899 4.84074 25.6451 6.19291 26.3518 7.76142C27.0586 9.32993 27.412 10.9736 27.412 12.6923C27.412 15.3365 26.6225 17.7344 25.0433 19.8858L31.5955 26.0697C32.0667 26.5144 32.3023 27.0553 32.3023 27.6923Z" fill="black"/>
</g>
<defs>
<clipPath id="clip0_161_189">
<rect width="31.7867" height="30" fill="white" transform="translate(0.515625)"/>
</clipPath>
</defs>
</svg>
