<svg width="48" height="48" viewBox="0 0 48 48" fill="none" xmlns="http://www.w3.org/2000/svg">
<g id="shopping-bag" clip-path="url(#clip0_161_103)">
<path id="Vector" d="M47.0627 37.7143L48.0002 46.0982C48.0538 46.5982 47.9109 47.0446 47.5716 47.4375C47.2324 47.8125 46.8038 48 46.2859 48H1.7145C1.19664 48 0.768073 47.8125 0.428787 47.4375C0.0895013 47.0446 -0.0533558 46.5982 0.000215605 46.0982L0.937716 37.7143H47.0627ZM44.5716 15.2411L46.8752 36H1.12522L3.42879 15.2411C3.48236 14.8125 3.66986 14.4509 3.99129 14.1562C4.31272 13.8616 4.69664 13.7143 5.14307 13.7143H12.0002V17.1429C12.0002 18.0893 12.335 18.8973 13.0047 19.567C13.6743 20.2366 14.4824 20.5714 15.4288 20.5714C16.3752 20.5714 17.1833 20.2366 17.8529 19.567C18.5225 18.8973 18.8574 18.0893 18.8574 17.1429V13.7143H29.1431V17.1429C29.1431 18.0893 29.4779 18.8973 30.1475 19.567C30.8172 20.2366 31.6252 20.5714 32.5716 20.5714C33.5181 20.5714 34.3261 20.2366 34.9957 19.567C35.6654 18.8973 36.0002 18.0893 36.0002 17.1429V13.7143H42.8574C43.3038 13.7143 43.6877 13.8616 44.0091 14.1562C44.3306 14.4509 44.5181 14.8125 44.5716 15.2411ZM34.2859 10.2857V17.1429C34.2859 17.6071 34.1163 18.0089 33.777 18.3482C33.4377 18.6875 33.0359 18.8571 32.5716 18.8571C32.1074 18.8571 31.7056 18.6875 31.3663 18.3482C31.027 18.0089 30.8574 17.6071 30.8574 17.1429V10.2857C30.8574 8.39286 30.1877 6.77679 28.8484 5.4375C27.5091 4.09821 25.8931 3.42857 24.0002 3.42857C22.1074 3.42857 20.4913 4.09821 19.152 5.4375C17.8127 6.77679 17.1431 8.39286 17.1431 10.2857V17.1429C17.1431 17.6071 16.9734 18.0089 16.6341 18.3482C16.2949 18.6875 15.8931 18.8571 15.4288 18.8571C14.9645 18.8571 14.5627 18.6875 14.2234 18.3482C13.8841 18.0089 13.7145 17.6071 13.7145 17.1429V10.2857C13.7145 7.44643 14.719 5.02232 16.7279 3.01339C18.7368 1.00446 21.1609 0 24.0002 0C26.8395 0 29.2636 1.00446 31.2725 3.01339C33.2815 5.02232 34.2859 7.44643 34.2859 10.2857Z" fill="black"/>
</g>
<defs>
<clipPath id="clip0_161_103">
<rect width="48" height="48" fill="white"/>
</clipPath>
</defs>
</svg>
