<svg width="48" height="48" viewBox="0 0 48 48" fill="none" xmlns="http://www.w3.org/2000/svg">
<g id="user-circle-o" clip-path="url(#clip0_161_120)">
<path id="Vector" d="M24 0C27.25 0 30.3571 0.633929 33.3214 1.90179C36.2857 3.16964 38.8393 4.875 40.9821 7.01786C43.125 9.16071 44.8304 11.7143 46.0982 14.6786C47.3661 17.6429 48 20.75 48 24C48 27.2321 47.3705 30.3304 46.1116 33.2946C44.8527 36.2589 43.1518 38.8125 41.0089 40.9554C38.8661 43.0982 36.3125 44.808 33.3482 46.0848C30.3839 47.3616 27.2679 48 24 48C20.7321 48 17.6161 47.3661 14.6518 46.0982C11.6875 44.8304 9.13839 43.1205 7.00446 40.9688C4.87054 38.817 3.16964 36.2634 1.90179 33.308C0.633929 30.3527 0 27.25 0 24C0 20.75 0.633929 17.6429 1.90179 14.6786C3.16964 11.7143 4.875 9.16071 7.01786 7.01786C9.16071 4.875 11.7143 3.16964 14.6786 1.90179C17.6429 0.633929 20.75 0 24 0ZM40.5804 36.1875C43.2411 32.5268 44.5714 28.4643 44.5714 24C44.5714 21.2143 44.0268 18.5536 42.9375 16.0179C41.8482 13.4821 40.3839 11.2946 38.5446 9.45536C36.7054 7.61607 34.5179 6.15179 31.9821 5.0625C29.4464 3.97321 26.7857 3.42857 24 3.42857C21.2143 3.42857 18.5536 3.97321 16.0179 5.0625C13.4821 6.15179 11.2946 7.61607 9.45536 9.45536C7.61607 11.2946 6.15179 13.4821 5.0625 16.0179C3.97321 18.5536 3.42857 21.2143 3.42857 24C3.42857 28.4643 4.75893 32.5268 7.41964 36.1875C8.59821 30.3482 11.3304 27.4286 15.6161 27.4286C17.9554 29.7143 20.75 30.8571 24 30.8571C27.25 30.8571 30.0446 29.7143 32.3839 27.4286C36.6696 27.4286 39.4018 30.3482 40.5804 36.1875ZM34.2857 18.8571C34.2857 16.0179 33.2812 13.5938 31.2723 11.5848C29.2634 9.57589 26.8393 8.57143 24 8.57143C21.1607 8.57143 18.7366 9.57589 16.7277 11.5848C14.7188 13.5938 13.7143 16.0179 13.7143 18.8571C13.7143 21.6964 14.7188 24.1205 16.7277 26.1295C18.7366 28.1384 21.1607 29.1429 24 29.1429C26.8393 29.1429 29.2634 28.1384 31.2723 26.1295C33.2812 24.1205 34.2857 21.6964 34.2857 18.8571Z" fill="black"/>
</g>
<defs>
<clipPath id="clip0_161_120">
<rect width="48" height="48" fill="white"/>
</clipPath>
</defs>
</svg>
