<svg width="22" height="12" viewBox="0 0 22 12" fill="none" xmlns="http://www.w3.org/2000/svg">
<path id="Vector" d="M11 12C10.7872 12 10.6071 11.9531 10.4598 11.8594L2.79911 7.15625C2.71726 7.11458 2.60472 7.04688 2.4615 6.95312C2.31827 6.85938 2.09115 6.6888 1.78013 6.44141C1.46912 6.19401 1.19085 5.9401 0.945312 5.67969C0.699777 5.41927 0.480841 5.10417 0.288504 4.73438C0.0961681 4.36458 0 4.00521 0 3.65625C0 2.51042 0.519717 1.61458 1.55915 0.96875C2.59859 0.322917 4.03497 0 5.8683 0C6.37574 0 6.89341 0.0559896 7.42132 0.167969C7.94922 0.279948 8.44029 0.43099 8.89453 0.621094C9.34877 0.811198 9.73958 0.989583 10.067 1.15625C10.3943 1.32292 10.7054 1.5 11 1.6875C11.2946 1.5 11.6057 1.32292 11.933 1.15625C12.2604 0.989583 12.6512 0.811198 13.1055 0.621094C13.5597 0.43099 14.0508 0.279948 14.5787 0.167969C15.1066 0.0559896 15.6243 0 16.1317 0C17.965 0 19.4014 0.322917 20.4408 0.96875C21.4803 1.61458 22 2.51042 22 3.65625C22 4.80729 21.0629 5.97917 19.1886 7.17188L11.5402 11.8594C11.3929 11.9531 11.2128 12 11 12Z" fill="#F00707"/>
</svg>
