<svg width="48" height="48" viewBox="0 0 48 48" fill="none" xmlns="http://www.w3.org/2000/svg">
<path id="Vector" d="M42.0822 48C41.1742 48 40.2896 47.8125 39.4286 47.4375C38.5675 47.0625 37.9335 46.7031 37.5264 46.3594C37.1194 46.0156 36.6341 45.5625 36.0704 45C34.0665 47 31.0607 48 27.0528 48H4.50881C4.10176 48 3.74951 47.8516 3.45205 47.5547C3.1546 47.2578 3.00587 46.9062 3.00587 46.5C3.00587 46.0938 3.1546 45.7422 3.45205 45.4453C3.74951 45.1484 4.10176 45 4.50881 45C4.88454 45 5.33072 44.6484 5.84736 43.9453C6.36399 43.2422 6.85714 42.3516 7.32681 41.2734C7.79648 40.1953 8.19569 38.9062 8.52446 37.4062C8.85323 35.9062 9.01761 34.4375 9.01761 33C9.01761 32.1875 8.91585 31.5 8.71233 30.9375C8.50881 30.375 8.25832 29.8906 7.96086 29.4844C7.6634 29.0781 7.36595 28.6328 7.06849 28.1484C6.77104 27.6641 6.52055 26.9453 6.31703 25.9922C6.1135 25.0391 6.01174 23.875 6.01174 22.5C6.01174 21.6875 6.1135 21.0234 6.31703 20.5078C6.52055 19.9922 6.77104 19.6016 7.06849 19.3359C7.36595 19.0703 7.6634 18.7969 7.96086 18.5156C8.25832 18.2344 8.50881 17.8047 8.71233 17.2266C8.91585 16.6484 9.01761 15.9062 9.01761 15C9.01761 13 8.01566 12 6.01174 12C4.60274 12 3.24853 11.4609 1.94912 10.3828C0.649706 9.30469 0 8.34375 0 7.5C0 6.78125 0.336595 6.10156 1.00978 5.46094C1.68297 4.82031 2.34834 4.5 3.00587 4.5C3.53816 4.5 4.03131 4.34375 4.48532 4.03125C4.93933 3.71875 5.36986 3.34375 5.77691 2.90625C6.18395 2.46875 6.63014 2.03125 7.11546 1.59375C7.60078 1.15625 8.25832 0.78125 9.08806 0.46875C9.91781 0.15625 10.8963 0 12.0235 0C13.4951 0 14.6928 0.171875 15.6164 0.515625C16.5401 0.859375 17.229 1.30469 17.683 1.85156C18.137 2.39844 18.5049 3.16406 18.7867 4.14844C19.0685 5.13281 19.2642 6.10938 19.3738 7.07812C19.4834 8.04688 19.6791 9.28125 19.9609 10.7812C20.2427 12.2812 20.6027 13.6875 21.0411 15C21.636 16.7812 23.0372 19.0547 25.2446 21.8203C27.4521 24.5859 29.0568 26.3125 30.0587 27C34.0665 29.6562 36.0704 33.6562 36.0704 39C36.0704 40.5312 36.9628 41.9141 38.7476 43.1484C40.5323 44.3828 42.6458 45 45.0881 45C45.9022 45 46.8571 44.8438 47.953 44.5312C47.6712 45.625 46.9824 46.4766 45.8865 47.0859C44.7906 47.6953 43.5225 48 42.0822 48ZM15.0294 33C14.9354 33.5 14.8102 34.1484 14.6536 34.9453C14.4971 35.7422 14.1605 36.9531 13.6438 38.5781C13.1272 40.2031 12.5871 41.3438 12.0235 42H18.0352C18.0352 40.6562 17.8787 39.4922 17.5656 38.5078C17.2524 37.5234 16.908 36.8125 16.5323 36.375C16.1566 35.9375 15.8121 35.4297 15.499 34.8516C15.1859 34.2734 15.0294 33.6562 15.0294 33Z" fill="black"/>
</svg>
